<svg xmlns="http://www.w3.org/2000/svg" width="21" height="25" viewBox="0 0 21 25">
  <path fill="#FFF" fill-rule="evenodd" d="M43.71,76.69 C44.110002,76.69 44.8199949,76.5200017 45.84,76.18 C46.8600051,75.8399983 47.7299964,75.67 48.45,75.67 C49.650006,75.67 50.7199953,75.9899968 51.66,76.63 C51.9200013,76.830001 52.1799987,77.0499988 52.44,77.29 C52.7000013,77.5300012 52.9599987,77.8099984 53.22,78.13 C52.4399961,78.8100034 51.8700018,79.4099974 51.51,79.93 C50.8499967,80.8500046 50.52,81.8799943 50.52,83.02 C50.52,84.2600062 50.8699965,85.379995 51.57,86.38 C52.2500034,87.3600049 53.0399955,87.9899986 53.94,88.27 C53.739999,88.870003 53.4900015,89.4849969 53.19,90.115 C52.8899985,90.7450032 52.5300021,91.3799968 52.11,92.02 C50.8299936,93.9600097 49.5400065,94.93 48.24,94.93 C47.6999973,94.93 46.9900044,94.7700016 46.11,94.45 C45.2499957,94.1499985 44.5000032,94 43.86,94 C43.1999967,94 42.4800039,94.1599984 41.7,94.48 C40.8599958,94.8200017 40.2000024,94.99 39.72,94.99 C38.1999924,94.99 36.7000074,93.7000129 35.22,91.12 C33.7399926,88.5599872 33,86.0400124 33,83.56 C33,81.2799886 33.5599944,79.4100073 34.68,77.95 C35.8200057,76.5099928 37.2499914,75.79 38.97,75.79 C39.7100037,75.79 40.5999948,75.9399985 41.64,76.24 C42.7000053,76.5400015 43.3899984,76.69 43.71,76.69 Z M48.3,70.63 C48.3,71.2700032 48.1500015,71.9599963 47.85,72.7 C47.5499985,73.4400037 47.0900031,74.1299968 46.47,74.77 C45.8899971,75.3100027 45.3400026,75.6699991 44.82,75.85 C44.4399981,75.9500005 43.9300032,76.0299997 43.29,76.09 C43.3100001,74.6099926 43.6949963,73.3250055 44.445,72.235 C45.1950037,71.1449945 46.4499912,70.400002 48.21,70 C48.2500002,70.1400007 48.2749999,70.2599995 48.285,70.36 C48.295,70.4600005 48.3,70.5499996 48.3,70.63 Z" transform="translate(-33 -70)"/>
</svg>
