<svg xmlns="http://www.w3.org/2000/svg" width="22" height="22" viewBox="0 0 22 22">
  <g fill="none" transform="translate(1 1)">
    <path fill="#979797" d="M10,20.5 C4.20101013,20.5 -0.5,15.7989899 -0.5,10 C-0.5,4.20101013 4.20101013,-0.5 10,-0.5 C15.7989899,-0.5 20.5,4.20101013 20.5,10 C20.5,15.7989899 15.7989899,20.5 10,20.5 Z M10,19.5 C15.2467051,19.5 19.5,15.2467051 19.5,10 C19.5,4.75329488 15.2467051,0.5 10,0.5 C4.75329488,0.5 0.5,4.75329488 0.5,10 C0.5,15.2467051 4.75329488,19.5 10,19.5 Z"/>
    <rect width="2" height="8" fill="#D8D8D8" transform="translate(9 8)"/>
    <path fill="#979797" d="M9.5,9 L10.5,9 L10,8.5 L10,15.5 L10.5,15 L9.5,15 L10,15.5 L10,8.5 L9.5,9 Z M11,8 L11,16 L9,16 L9,8 L11,8 Z"/>
    <g transform="translate(9 4)">
      <rect width="2" height="1.999" fill="#D8D8D8"/>
      <path fill="#979797" d="M0.5,1 L1.5,1 L1,0.5 L1,1.5 L1.5,1 L0.5,1 L1,1.5 L1,0.5 L0.5,1 Z M2,0 L2,2 L0,2 L0,0 L2,0 Z"/>
    </g>
  </g>
</svg>
