<svg xmlns="http://www.w3.org/2000/svg" width="23" height="23" viewBox="0 0 23 23">
  <path fill="#FFF" d="M11.25,23 C9.73291435,23 8.25919998,22.7060078 6.8699535,22.1274393 C5.52984094,21.5675537 4.3268181,20.7697242 3.29576397,19.7532313 C2.26289008,18.7350944 1.45187707,17.5492608 0.88501719,16.2289112 C0.298139786,14.8607336 0,13.40811 0,11.9125906 C0,10.4169217 0.298139786,8.96399905 0.88501719,7.59552263 C1.45248365,6.27547194 2.26289008,5.08918998 3.29576397,4.07269715 C4.32772798,3.05560646 5.53014424,2.25628229 6.8699535,1.69699451 C7.21753051,1.55321182 7.58285032,1.479228 7.95742064,1.479228 C9.08173827,1.479228 10.0921682,2.13895441 10.5310373,3.16052897 C11.1314113,4.55815056 10.4646155,6.17712578 9.04670758,6.76839848 C8.37354251,7.04893915 7.76695087,7.45218832 7.24543372,7.96499334 C6.72421987,8.48004028 6.3156804,9.07729147 6.03088563,9.74045556 C5.73623374,10.427683 5.5876188,11.1581051 5.5876188,11.9125906 C5.5876188,12.6669266 5.73623374,13.3976476 6.03088563,14.0839783 C6.3156804,14.748637 6.72421987,15.3449914 7.24543372,15.8588426 C7.76634429,16.3728433 8.37248097,16.7754947 9.04670758,17.0567827 C9.74292308,17.3467395 10.4843297,17.4932124 11.25,17.4932124 C12.0156703,17.4932124 12.7570769,17.3467395 13.453899,17.0567827 C14.127519,16.7754947 14.7338074,16.3728433 15.254263,15.8588426 C15.7747186,15.3455892 16.1838647,14.7492348 16.4694177,14.0839783 C16.7642212,13.3967509 16.9132911,12.6663288 16.9132911,11.9125906 C16.9132911,10.394353 18.1660545,9.15934627 19.7064939,9.15934627 C21.24663,9.15934627 22.5,10.394353 22.5,11.9125906 C22.5,13.40811 22.2020119,14.8607336 21.6143762,16.2289112 C21.0484262,17.5492608 20.2374132,18.7350944 19.2049943,19.7532313 C18.1731819,20.7697242 16.9695525,21.5675537 15.6303498,22.1274393 C14.2406484,22.7060078 12.7672373,23 11.25,23 Z M9.89517758,0.313272899 C9.89517758,0.139448289 9.75217366,0 9.57671699,0 C9.54077649,0 8.87640696,0.132274101 8.87640696,0.132274101 C8.65864055,0.191311693 8.5207926,0.384865322 8.5207926,0.618624297 C8.5207926,0.899463883 8.75144907,1.12754329 9.0359406,1.12754329 C9.19380602,1.12754329 9.33271551,1.05580141 9.42749547,0.946395038 L9.79266362,0.543145856 C9.85483927,0.485154499 9.89517758,0.403847029 9.89517758,0.313272899 Z M12.5467413,4.58669786 C12.5467413,4.41317217 12.4040406,4.27252818 12.2282807,4.27252818 C12.1924918,4.27252818 11.5284255,4.40540014 11.5284255,4.40540014 C11.3105076,4.46518504 11.172508,4.65873866 11.172508,4.89160087 C11.172508,5.17258992 11.4036194,5.40066933 11.6882625,5.40066933 C11.8453697,5.40066933 11.9845825,5.32997368 12.0796657,5.22011892 L12.4440756,4.81612243 C12.5070095,4.75828054 12.5467413,4.67757092 12.5467413,4.58669786 Z M11.8817652,0.944900416 C11.8817652,0.732962927 11.7076734,0.561081327 11.4927883,0.561081327 C11.4492654,0.561081327 10.6391623,0.723546804 10.6391623,0.723546804 C10.3730202,0.795438152 10.2039327,1.03218637 10.2039327,1.31706144 C10.2039327,1.65962894 10.4856946,1.93732982 10.8335749,1.93732982 C11.0254094,1.93732982 11.1949518,1.85079117 11.3105076,1.71717192 L11.7568073,1.22469376 C11.8326312,1.15534328 11.8817652,1.05520356 11.8817652,0.944900416 Z M12.8359338,2.6300874 C12.8359338,2.41889723 12.6621453,2.24701563 12.4474119,2.24701563 C12.4040406,2.24701563 11.5937858,2.40903272 11.5937858,2.40903272 C11.3279471,2.48137246 11.1588597,2.71752283 11.1588597,3.00194951 C11.1588597,3.34511486 11.4410764,3.62281574 11.7881984,3.62281574 C11.9803363,3.62281574 12.150182,3.53687494 12.2654344,3.40265783 L12.7114309,2.91017968 C12.7872548,2.8403808 12.8359338,2.74188518 12.8359338,2.6300874 Z"/>
</svg>
