<svg xmlns="http://www.w3.org/2000/svg" width="31" height="33" viewBox="0 0 31 33">
  <g fill="none" fill-rule="evenodd" transform="translate(-5 -5)">
    <rect width="42" height="42"/>
    <path fill="#FF4E00" d="M16.475,24.71 L24.8,24.71 L20.75,12.92 L20.66,12.92 L16.475,24.71 Z M17.8409598,5 L23.7013175,5 L23.7013175,5 C24.1184992,5 24.4918474,5.25898513 24.6379697,5.64973929 L35.9050706,35.7797393 L35.9050706,35.7797393 C36.0985142,36.297038 35.8359778,36.8732086 35.318679,37.0666522 C35.2066532,37.1085443 35.0880207,37.13 34.9684183,37.13 L29.7914756,37.13 L29.7914756,37.13 C29.3631237,37.13 28.9823445,36.8571809 28.844594,36.4515824 L26.645,29.975 L14.63,29.975 L12.3452002,36.4621995 L12.3452002,36.4621995 C12.2042731,36.8623317 11.8262154,37.13 11.401991,37.13 L6.44726228,37.13 L6.44726228,37.13 C5.89497753,37.13 5.44726228,36.6822847 5.44726228,36.13 C5.44726228,36.0091606 5.46916407,35.8893217 5.51190573,35.7762937 L16.9056032,5.64629374 L16.9056032,5.64629374 C17.0526866,5.25733984 17.4251249,5 17.8409598,5 Z"/>
  </g>
</svg>
