<svg xmlns="http://www.w3.org/2000/svg" width="40" height="32" viewBox="0 0 40 32">
  <path fill="#9170FF" fill-rule="evenodd" d="M18.0435095,24.6311551 L12.8499999,20 L5,27 L18.3499999,27 L36.7038574,27 L26.3519287,15 L18.0435095,24.6311551 Z M40,3 L40,29 C40,30.6568542 38.6568542,32 37,32 L3,32 C1.34314575,32 -1.42108547e-14,30.6568542 -1.42108547e-14,29 L-1.42108547e-14,3 C-1.42108547e-14,1.34314575 1.34314575,7.89902628e-15 3,7.5946671e-15 L37,5.51276754e-15 C38.6568542,5.20840835e-15 40,1.34314575 40,3 L40,3 Z M10,15 C12.7614237,15 15,12.7614237 15,10 C15,7.23857625 12.7614237,5 10,5 C7.23857625,5 5,7.23857625 5,10 C5,12.7614237 7.23857625,15 10,15 Z"/>
</svg>
