<svg xmlns="http://www.w3.org/2000/svg" width="38" height="38" viewBox="0 0 38 38">
  <g fill="none" fill-rule="evenodd" transform="translate(-2 -2)">
    <rect width="42" height="42"/>
    <path fill="#288BFF" d="M21,40 C10.5065898,40 2,31.4934102 2,21 C2,10.5065898 10.5065898,2 21,2 C31.4934102,2 40,10.5065898 40,21 C40,31.4934102 31.4934102,40 21,40 Z M21,17 C19.8954305,17 19,17.8954305 19,19 L19,30 C19,31.1045695 19.8954305,32 21,32 C22.1045695,32 23,31.1045695 23,30 L23,19 C23,17.8954305 22.1045695,17 21,17 Z M21,10 C19.8954305,10 19,10.8954305 19,12 L19,12 C19,13.1045695 19.8954305,14 21,14 L21,14 C22.1045695,14 23,13.1045695 23,12 L23,12 L23,12 C23,10.8954305 22.1045695,10 21,10 L21,10 Z"/>
  </g>
</svg>
