<?xml version="1.0" encoding="UTF-8"?><!DOCTYPE svg PUBLIC "-//W3C//DTD SVG 1.1//EN" "http://www.w3.org/Graphics/SVG/1.1/DTD/svg11.dtd"><svg xmlns="http://www.w3.org/2000/svg"><symbol id="icon-apple" viewBox="0 0 21 25">
    <path fill-rule="evenodd" d="M10.71 6.69c.4 0 1.11-.17 2.13-.51 1.02-.34 1.89-.51 2.61-.51 1.2 0 2.27.32 3.21.96.26.2.52.42.78.66.26.24.52.52.78.84-.78.68-1.35 1.28-1.71 1.8-.66.92-.99 1.95-.99 3.09 0 1.24.35 2.36 1.05 3.36.68.98 1.47 1.61 2.37 1.89a16.26 16.26 0 0 1-1.83 3.75c-1.28 1.94-2.57 2.91-3.87 2.91-.54 0-1.25-.16-2.13-.48-.86-.3-1.61-.45-2.25-.45-.66 0-1.38.16-2.16.48-.84.34-1.5.51-1.98.51-1.52 0-3.02-1.29-4.5-3.87C.74 18.56 0 16.04 0 13.56c0-2.28.56-4.15 1.68-5.61 1.14-1.44 2.57-2.16 4.29-2.16.74 0 1.63.15 2.67.45 1.06.3 1.75.45 2.07.45zM15.3.63c0 .64-.15 1.33-.45 2.07-.3.74-.76 1.43-1.38 2.07-.58.54-1.13.9-1.65 1.08-.38.1-.89.18-1.53.24.02-1.48.405-2.765 1.155-3.855C12.195 1.145 13.45.4 15.21 0a2.111 2.111 0 0 1 .09.63z"/>
</symbol><symbol id="icon-arr-down" viewBox="0 0 13 9">
    <path d="M.379 2.5L6.5 8.621 8.621 6.5 2.5.379z"/>
    <path d="M12.621 2.5L6.5 8.621 4.379 6.5 10.5.379z"/>
</symbol><symbol id="icon-info" viewBox="0 0 22 22">
    <g>
        <path d="M11 21.5C5.201 21.5.5 16.799.5 11S5.201.5 11 .5 21.5 5.201 21.5 11 16.799 21.5 11 21.5zm0-1a9.5 9.5 0 1 0 0-19 9.5 9.5 0 0 0 0 19z"/>
        <path d="M10 9h2v8h-2z"/>
        <path d="M10.5 10h1l-.5-.5v7l.5-.5h-1l.5.5v-7l-.5.5zM12 9v8h-2V9h2z"/>
        <path d="M10 5h2v1.999h-2z"/>
        <path d="M10.5 6h1l-.5-.5v1l.5-.5h-1l.5.5v-1l-.5.5zM12 5v2h-2V5h2z"/>
    </g>
</symbol><symbol id="icon-macpaw" viewBox="0 0 23 23">
    <path d="M11.25 23c-1.517 0-2.99-.294-4.38-.873a11.235 11.235 0 0 1-3.574-2.374A11.05 11.05 0 0 1 .885 16.23 10.89 10.89 0 0 1 0 11.913c0-1.496.298-2.949.885-4.317a11.038 11.038 0 0 1 2.41-3.523A11.232 11.232 0 0 1 6.87 1.697a2.83 2.83 0 0 1 1.087-.218c1.125 0 2.135.66 2.574 1.682.6 1.397-.066 3.016-1.484 3.607-.673.28-1.28.684-1.802 1.197A5.586 5.586 0 0 0 6.031 9.74a5.478 5.478 0 0 0-.443 2.173c0 .754.148 1.485.443 2.171a5.65 5.65 0 0 0 3.016 2.973 5.7 5.7 0 0 0 2.203.436 5.648 5.648 0 0 0 4.004-1.634c.52-.513.93-1.11 1.215-1.775a5.475 5.475 0 0 0 .444-2.171c0-1.519 1.253-2.754 2.793-2.754 1.54 0 2.794 1.235 2.794 2.754 0 1.495-.298 2.948-.886 4.316a11.038 11.038 0 0 1-2.409 3.524 11.255 11.255 0 0 1-3.575 2.374c-1.39.579-2.863.873-4.38.873zM9.895.313A.316.316 0 0 0 9.577 0c-.036 0-.7.132-.7.132A.486.486 0 0 0 8.52.62c0 .28.23.509.515.509a.517.517 0 0 0 .391-.182l.366-.403a.315.315 0 0 0 .102-.23zm2.652 4.274a.316.316 0 0 0-.319-.314c-.036 0-.7.132-.7.132a.487.487 0 0 0-.355.487.516.516 0 1 0 .907.329l.364-.405a.31.31 0 0 0 .103-.23zM11.882.945a.386.386 0 0 0-.39-.384c-.043 0-.853.163-.853.163a.594.594 0 0 0-.435.593c0 .343.282.62.63.62a.629.629 0 0 0 .477-.22l.446-.492a.38.38 0 0 0 .125-.28zm.954 1.685a.386.386 0 0 0-.389-.383c-.043 0-.853.162-.853.162a.594.594 0 0 0-.435.593c0 .343.282.62.63.62a.626.626 0 0 0 .476-.22l.446-.492a.379.379 0 0 0 .125-.28z"/>
</symbol><symbol id="icon-next" viewBox="0 0 23 39">
    <g>
        <path d="M.672 3.5L19.5 22.328l2.828-2.828L3.5.672z"/>
        <path d="M22.328 19.5L3.5 38.328.672 35.5 19.5 16.672z"/>
    </g>
</symbol><symbol id="icon-prev" viewBox="0 0 23 39">
    <g stroke-linecap="square">
        <path d="M22.328 3.5L3.5 22.328.672 19.5 19.5.672z"/>
        <path d="M.672 19.5L19.5 38.328l2.828-2.828L3.5 16.672z"/>
    </g>
</symbol><symbol id="icon-star" viewBox="0 0 40 38">
    <path fill-rule="evenodd" d="M19.9 31.386L7.601 37.852 9.95 24.157 0 14.458l13.75-1.998L19.9 0l6.149 12.46 13.75 1.998-9.949 9.699 2.348 13.695z"/>
</symbol></svg>