<?xml version="1.0" encoding="UTF-8"?><!DOCTYPE svg PUBLIC "-//W3C//DTD SVG 1.1//EN" "http://www.w3.org/Graphics/SVG/1.1/DTD/svg11.dtd"><svg xmlns="http://www.w3.org/2000/svg"><symbol id="icon-a" viewBox="0 0 33 33">
    <path fill-rule="evenodd" d="M12.205 20.58h8.325L16.48 8.79h-.09l-4.185 11.79zM12.88.87h7.245L32.14 33h-7.335l-2.43-7.155H10.36L7.84 33H.73L12.88.87z"/>
</symbol><symbol id="icon-info" viewBox="0 0 22 22">
    <g>
        <path d="M11 21.5C5.201 21.5.5 16.799.5 11S5.201.5 11 .5 21.5 5.201 21.5 11 16.799 21.5 11 21.5zm0-1a9.5 9.5 0 1 0 0-19 9.5 9.5 0 0 0 0 19z"/>
        <path d="M10 9h2v8h-2z"/>
        <path d="M10.5 10h1l-.5-.5v7l.5-.5h-1l.5.5v-7l-.5.5zM12 9v8h-2V9h2z"/>
        <path d="M10 5h2v1.999h-2z"/>
        <path d="M10.5 6h1l-.5-.5v1l.5-.5h-1l.5.5v-1l-.5.5zM12 5v2h-2V5h2z"/>
    </g>
</symbol><symbol id="icon-install" viewBox="0 0 39 35">
    <g>
        <path d="M17 .5v28.023h6V.5h-6zm17.63 11.257L15.757 30.63 20 34.873 38.873 16l-4.243-4.243z"/>
        <path d="M5 11.757L23.873 30.63l-4.243 4.243L.757 16z"/>
    </g>
</symbol><symbol id="icon-next" viewBox="0 0 23 39">
    <g>
        <path d="M.672 3.5L19.5 22.328l2.828-2.828L3.5.672z"/>
        <path d="M22.328 19.5L3.5 38.328.672 35.5 19.5 16.672z"/>
    </g>
</symbol><symbol id="icon-prev" viewBox="0 0 23 39">
    <g stroke-linecap="square">
        <path d="M22.328 3.5L3.5 22.328.672 19.5 19.5.672z"/>
        <path d="M.672 19.5L19.5 38.328l2.828-2.828L3.5 16.672z"/>
    </g>
</symbol><symbol id="icon-star" viewBox="0 0 40 38">
    <path fill-rule="evenodd" d="M19.9 31.386L7.601 37.852 9.95 24.157 0 14.458l13.75-1.998L19.9 0l6.149 12.46 13.75 1.998-9.949 9.699 2.348 13.695z"/>
</symbol></svg>