<svg xmlns="http://www.w3.org/2000/svg" width="42" height="37" viewBox="0 0 42 37">
  <g fill="none" fill-rule="evenodd" transform="translate(0 -1)">
    <rect width="42" height="42"/>
    <g fill="#28CD44" transform="translate(0 1)">
      <path d="M15.1268657 28.5373134L11 25 4 31 15.5 31 32 31 22.5 20 15.1268657 28.5373134zM35 11L35 33.8C35 35.4568542 33.6568542 36.8 32 36.8L3 36.8 3 36.8C1.34314575 36.8 3.62376795e-13 35.4568542 3.62376795e-13 33.8L3.62376795e-13 11C3.62376795e-13 9.34314575 1.34314575 8 3 8L32 8 32 8C33.6568542 8 35 9.34314575 35 11zM9.5 21C11.9852814 21 14 18.9852814 14 16.5 14 14.0147186 11.9852814 12 9.5 12 7.01471863 12 5 14.0147186 5 16.5 5 18.9852814 7.01471863 21 9.5 21zM36.967421 26.2488922L41.386855 14.1065972C41.9535325 12.5496635 41.1507712 10.8281364 39.5938375 10.2614589L36.967421 9.30552147 36.967421 26.2488922zM8.24661089 5.66810307L9.41120328 2.46841177C9.97788081.911478053 11.6994079.108716805 13.2563416.675394333L26.9736961 5.66810307 8.24661089 5.66810307z"/>
    </g>
  </g>
</svg>
